<svg width="20" height="20" viewBox="0 0 20 20" fill="none" xmlns="http://www.w3.org/2000/svg">
<path d="M17.2415 11.5859L10.679 18.4609C10.502 18.6465 10.2568 18.7515 10.0001 18.7515C9.74349 18.7515 9.49856 18.6465 9.32122 18.4609L2.75872 11.5859C2.40228 11.2112 2.41571 10.618 2.79046 10.2602C3.16155 9.9025 3.75726 9.91594 4.11624 10.2919L9.06155 15.4755V2.18789C9.06155 1.67031 9.48187 1.25 9.99944 1.25C10.517 1.25 10.9366 1.67031 10.9366 2.18789V15.473L15.8819 10.2895C16.2415 9.91406 16.8372 9.90234 17.2095 10.2578C17.5845 10.6172 17.5978 11.1758 17.2415 11.5859Z" fill="white"/>
</svg>
