<svg width="30" height="30" viewBox="0 0 30 30" fill="none" xmlns="http://www.w3.org/2000/svg">
<path d="M15 0C23.2843 0 30 6.71573 30 15C30 23.2843 23.2843 30 15 30C6.71573 30 0 23.2843 0 15C0 6.71573 6.71573 0 15 0ZM7 7.93359C7.00004 9.80016 7.40024 11.637 8.2002 13.4443C9.0002 15.2517 10.1406 16.8964 11.6221 18.3779C13.1036 19.8594 14.7519 20.9998 16.5664 21.7998C18.3808 22.5997 20.2141 23 22.0664 23H23V17.7773L18.5557 16.8662L15.9775 19.4443C15.3851 19.1037 14.8335 18.7369 14.3223 18.3447C13.8109 17.9525 13.3401 17.5415 12.9111 17.1113C12.4519 16.6669 12.022 16.1855 11.6221 15.667C11.2221 15.1485 10.8591 14.6002 10.5332 14.0225L13.0664 11.4668L12.2441 7H7V7.93359Z" fill="white"/>
</svg>
