<svg width="101" height="100" viewBox="0 0 101 100" fill="none" xmlns="http://www.w3.org/2000/svg">
<path d="M10.6719 100C7.92187 100 5.56854 99.0217 3.61188 97.065C1.65521 95.1083 0.675208 92.7533 0.671875 90V30C0.671875 27.25 1.65188 24.8967 3.61188 22.94C5.57187 20.9833 7.92521 20.0033 10.6719 20H30.6719V10C30.6719 7.25 31.6519 4.89667 33.6119 2.94C35.5719 0.983334 37.9252 0.00333333 40.6719 0H60.6719C63.4219 0 65.7769 0.98 67.7369 2.94C69.6969 4.9 70.6752 7.25333 70.6719 10V20H90.6719C93.4219 20 95.7769 20.98 97.7369 22.94C99.6969 24.9 100.675 27.2533 100.672 30V90C100.672 92.75 99.6935 95.105 97.7369 97.065C95.7802 99.025 93.4252 100.003 90.6719 100H10.6719ZM40.6719 20H60.6719V10H40.6719V20ZM45.6719 65V80H55.6719V65H70.6719V55H55.6719V40H45.6719V55H30.6719V65H45.6719Z" fill="#1E1E1E"/>
</svg>
