<svg width="30" height="30" viewBox="0 0 30 30" fill="none" xmlns="http://www.w3.org/2000/svg">
<path d="M15 0C23.2843 0 30 6.71573 30 15C30 23.2843 23.2843 30 15 30C6.71573 30 0 23.2843 0 15C0 6.71573 6.71573 0 15 0ZM6 9V13.6123C6 15.5695 6.75827 17.447 8.1084 18.8311C9.45866 20.2151 11.2906 20.9922 13.2002 20.9922H16.7998L16.8271 21V16.8486C17.8135 16.9746 18.7209 17.4658 19.3789 18.2295C20.0369 18.9933 20.4005 19.9772 20.4004 20.9961H24L23.6094 18.792C23.4552 17.9232 23.0763 17.1124 22.5117 16.4453C21.9472 15.7782 21.2177 15.2792 20.4004 15C21.2409 14.5691 21.9745 13.9472 22.5449 13.1816C23.1155 12.416 23.5079 11.5267 23.6924 10.582L24 9.00391H20.4004C20.4005 10.0228 20.0369 11.0067 19.3789 11.7705C18.7209 12.5342 17.8135 13.0254 16.8271 13.1514H16.7998V9H13.2002V17.3027C12.2454 17.3027 11.3294 16.9137 10.6543 16.2217C9.97924 15.5297 9.59961 14.5909 9.59961 13.6123V9H6Z" fill="white"/>
</svg>
