<svg width="86" height="100" viewBox="0 0 86 100" fill="none" xmlns="http://www.w3.org/2000/svg">
<path d="M43 88.9286L69.7556 72.619C65.7741 69.8413 61.5139 67.7587 56.975 66.3714C52.4361 64.9841 47.7778 64.2889 43 64.2857C38.2222 64.2825 33.5448 64.9778 28.9677 66.3714C24.3906 67.7651 20.0699 69.8079 16.0056 72.5L43 88.9286ZM43 54.7619C47.6185 54.7619 51.5602 53.1349 54.825 49.881C58.0898 46.627 59.7222 42.6984 59.7222 38.0952C59.7222 33.4921 58.0898 29.5635 54.825 26.3095C51.5602 23.0556 47.6185 21.4286 43 21.4286C38.3815 21.4286 34.4398 23.0556 31.175 26.3095C27.9102 29.5635 26.2778 33.4921 26.2778 38.0952C26.2778 42.6984 27.9102 46.627 31.175 49.881C34.4398 53.1349 38.3815 54.7619 43 54.7619ZM43 100L0 73.8095V26.1905L43 0L86 26.1905V73.8095L43 100Z" fill="#1E1E1E"/>
</svg>
