<svg width="142" height="100" viewBox="0 0 142 100" fill="none" xmlns="http://www.w3.org/2000/svg">
<path d="M65.4609 29.4118C65.4609 42.4118 54.9447 52.9412 41.9609 52.9412C28.9772 52.9412 18.4609 42.4118 18.4609 29.4118C18.4609 16.4118 28.9772 5.88235 41.9609 5.88235C54.9447 5.88235 65.4609 16.4118 65.4609 29.4118ZM65.4609 68.9412V100H0.835938V88.2353C0.835938 75.2353 19.2247 64.7059 41.9609 64.7059C50.7734 64.7059 58.8222 66.2941 65.4609 68.9412ZM141.836 100H77.2109V0H141.836V100ZM94.8359 50C94.8359 46.0998 96.3834 42.3593 99.1378 39.6014C101.892 36.8435 105.628 35.2941 109.523 35.2941C113.419 35.2941 117.155 36.8435 119.909 39.6014C122.664 42.3593 124.211 46.0998 124.211 50C124.211 53.9002 122.664 57.6407 119.909 60.3986C117.155 63.1565 113.419 64.7059 109.523 64.7059C105.628 64.7059 101.892 63.1565 99.1378 60.3986C96.3834 57.6407 94.8359 53.9002 94.8359 50ZM130.086 23.5294C126.97 23.5294 123.981 22.2899 121.777 20.0836C119.574 17.8773 118.336 14.8849 118.336 11.7647H100.711C100.711 18.2941 95.4822 23.5294 88.9609 23.5294V76.4706C92.0772 76.4706 95.0659 77.7101 97.2694 79.9164C99.473 82.1227 100.711 85.1151 100.711 88.2353H118.336C118.336 81.7647 123.623 76.4706 130.086 76.4706V23.5294Z" fill="#1E1E1E"/>
</svg>
