<svg width="30" height="30" viewBox="0 0 30 30" fill="none" xmlns="http://www.w3.org/2000/svg">
<path d="M15 0C23.2843 0 30 6.71573 30 15C30 23.2843 23.2843 30 15 30C6.71573 30 0 23.2843 0 15C0 6.71573 6.71573 0 15 0ZM14.1484 9.05078C13.2135 9.05078 12.2017 9.07624 11.0967 9.13574C9.97505 9.18673 9.24424 9.26356 8.84473 9.37402C8.07973 9.58652 7.58652 10.0797 7.37402 10.8447C7.13606 11.7202 7 13.0888 7 14.9502L7.05078 15.6641C7.05078 16.174 7.07625 16.7605 7.13574 17.4404C7.18674 18.1204 7.26352 18.6562 7.37402 19.0557C7.58655 19.8206 8.07978 20.3139 8.84473 20.5264C9.72044 20.7643 11.9389 20.9004 15.5 20.9004L16.8516 20.8486C17.7865 20.8486 18.7983 20.8232 19.9033 20.7637C21.0248 20.7127 21.7557 20.6368 22.1553 20.5264C22.9202 20.3139 23.4135 19.8206 23.626 19.0557C23.864 18.1802 24 16.8116 24 14.9502L23.9492 14.2363C23.9492 13.7264 23.9237 13.1398 23.8643 12.46C23.8133 11.7801 23.7364 11.2442 23.626 10.8447C23.4135 10.0797 22.9203 9.58652 22.1553 9.37402C21.2796 9.13606 19.0612 9 15.5 9L14.1484 9.05078ZM18.2119 14.9502L13.7998 17.5V12.4004L18.2119 14.9502Z" fill="white"/>
</svg>
